<?xml version="1.0" ?><svg viewBox="0 0 60 60" xmlns="http://www.w3.org/2000/svg"><defs><style>.a{fill:#e82e5f;}.b{fill:none;stroke:#1c4db8;stroke-linecap:round;stroke-linejoin:round;stroke-width:1.5px;}</style></defs><title/><path class="a" d="M43.045,11.256a2.754,2.754,0,0,0-1.124-3.723L29.868,1.064a2.756,2.756,0,0,0-3.723,1.124l-9.19,17.125a2.748,2.748,0,0,0,1.124,3.723L30.132,29.5a2.764,2.764,0,0,0,3.723-1.123Zm-10.194,4.82a36.742,36.742,0,0,0-4.376,3.911,1.4,1.4,0,0,1-2.357-.387c-.378-.862-1.659-3.321-2.132-4.224a.5.5,0,0,1,.175-.654c1.285-.812,3.02,1.412,3.554,2.167a40.335,40.335,0,0,1,3.523-3.061c3.214-2.44,5.5-2.468,6.706-2.192a.5.5,0,0,1,.159.908C36.725,13.432,33.98,15.219,32.851,16.076Z"/><polyline class="b" points="37.97 26.796 51.443 32.438 30 41.417 8.557 32.438 20.317 27.513"/><line class="b" x1="34.553" x2="25.447" y1="34.344" y2="30.531"/><path class="b" d="M8.557,32.438V48.292a2.114,2.114,0,0,0,1.3,1.95l19.329,8.094a2.114,2.114,0,0,0,1.634,0l19.329-8.094a2.114,2.114,0,0,0,1.3-1.95V32.438"/><line class="b" x1="30" x2="30" y1="41.417" y2="58.5"/></svg>