<svg viewBox="0 0 60 60" xmlns="http://www.w3.org/2000/svg"><path d="M43.045 11.256a2.754 2.754 0 0 0-1.124-3.723L29.868 1.064a2.756 2.756 0 0 0-3.723 1.124l-9.19 17.125a2.748 2.748 0 0 0 1.124 3.723L30.132 29.5a2.764 2.764 0 0 0 3.723-1.123Zm-10.194 4.82a36.742 36.742 0 0 0-4.376 3.911 1.4 1.4 0 0 1-2.357-.387c-.378-.862-1.659-3.321-2.132-4.224a.5.5 0 0 1 .175-.654c1.285-.812 3.02 1.412 3.554 2.167a40.335 40.335 0 0 1 3.523-3.061c3.214-2.44 5.5-2.468 6.706-2.192a.5.5 0 0 1 .159.908c-1.378.888-4.123 2.675-5.252 3.532Z" fill="#c20031" class="fill-e82e5f"></path><path d="m37.97 26.796 13.473 5.642L30 41.417 8.557 32.438l11.76-4.925M34.553 34.344l-9.106-3.813" fill="none" stroke="#b81a1a" stroke-linecap="round" stroke-linejoin="round" stroke-width="1.5px" class="stroke-1c4db8"></path><path d="M8.557 32.438v15.854a2.114 2.114 0 0 0 1.3 1.95l19.329 8.094a2.114 2.114 0 0 0 1.634 0l19.329-8.094a2.114 2.114 0 0 0 1.3-1.95V32.438M30 41.417V58.5" fill="none" stroke="#b81a1a" stroke-linecap="round" stroke-linejoin="round" stroke-width="1.5px" class="stroke-1c4db8"></path></svg>